<svg width="100" height="100" viewBox="0 0 100 100" fill="none" xmlns="http://www.w3.org/2000/svg">
<path d="M50.01 8.21009C50.5996 7.36485 51.357 6.65018 52.235 6.11067C53.113 5.57116 54.0928 5.21838 55.1132 5.07435C56.1336 4.93032 57.1728 4.99812 58.1658 5.27353C59.1589 5.54894 60.0845 6.02605 60.885 6.67509L77.235 19.9501C78.6959 21.1356 79.6579 22.8268 79.9302 24.6884C80.2025 26.5499 79.7652 28.4459 78.705 30.0001H72.605L74.555 27.2051C74.918 26.6874 75.0713 26.0513 74.9841 25.4251C74.8969 24.7989 74.5756 24.2289 74.085 23.8301L65.665 17.0001L56.685 30.0001H50.6L61.77 13.8401L57.73 10.5601C57.4633 10.3437 57.1548 10.1845 56.8239 10.0926C56.4929 10.0006 56.1466 9.9779 55.8064 10.0257C55.4663 10.0736 55.1397 10.191 54.847 10.3707C54.5542 10.5504 54.3016 10.7885 54.105 11.0701L40.9 29.9951H34.8L50.01 8.21009V8.21009ZM67.5 60.0001C66.837 60.0001 66.2011 60.2635 65.7322 60.7323C65.2634 61.2012 65 61.837 65 62.5001C65 63.1631 65.2634 63.799 65.7322 64.2679C66.2011 64.7367 66.837 65.0001 67.5 65.0001H72.5C73.163 65.0001 73.7989 64.7367 74.2678 64.2679C74.7366 63.799 75 63.1631 75 62.5001C75 61.837 74.7366 61.2012 74.2678 60.7323C73.7989 60.2635 73.163 60.0001 72.5 60.0001H67.5ZM22.5 25.0001H33.345L29.845 30.0001H22.5C21.837 30.0001 21.2011 30.2635 20.7322 30.7323C20.2634 31.2012 20 31.837 20 32.5001C20 33.1631 20.2634 33.799 20.7322 34.2679C21.2011 34.7367 21.837 35.0001 22.5 35.0001H75C77.6522 35.0001 80.1957 36.0537 82.0711 37.929C83.9464 39.8044 85 42.3479 85 45.0001V75.0001C85 77.6523 83.9464 80.1958 82.0711 82.0712C80.1957 83.9465 77.6522 85.0001 75 85.0001H27.5C24.1848 85.0001 21.0054 83.6831 18.6612 81.3389C16.317 78.9947 15 75.8153 15 72.5001V32.5001C15 30.511 15.7902 28.6033 17.1967 27.1968C18.6032 25.7903 20.5109 25.0001 22.5 25.0001V25.0001ZM20 72.5001C20 74.4892 20.7902 76.3969 22.1967 77.8034C23.6032 79.2099 25.5109 80.0001 27.5 80.0001H75C76.3261 80.0001 77.5979 79.4733 78.5355 78.5356C79.4732 77.5979 80 76.3262 80 75.0001V45.0001C80 43.674 79.4732 42.4022 78.5355 41.4646C77.5979 40.5269 76.3261 40.0001 75 40.0001H22.5C21.625 40.0001 20.78 39.8501 20 39.5751V72.5001Z" fill="#333333"/>
</svg>
