<svg width="100" height="100" viewBox="0 0 100 100" fill="none" xmlns="http://www.w3.org/2000/svg">
<path d="M50 20.3125C52.5888 20.3125 54.6875 18.2138 54.6875 15.625C54.6875 13.0362 52.5888 10.9375 50 10.9375C47.4112 10.9375 45.3125 13.0362 45.3125 15.625C45.3125 18.2138 47.4112 20.3125 50 20.3125Z" stroke="#333333" stroke-width="9.375" stroke-linecap="round" stroke-linejoin="round"/>
<path d="M50 54.6875C52.5888 54.6875 54.6875 52.5888 54.6875 50C54.6875 47.4112 52.5888 45.3125 50 45.3125C47.4112 45.3125 45.3125 47.4112 45.3125 50C45.3125 52.5888 47.4112 54.6875 50 54.6875Z" stroke="#333333" stroke-width="9.375" stroke-linecap="round" stroke-linejoin="round"/>
<path d="M50 89.0625C52.5888 89.0625 54.6875 86.9638 54.6875 84.375C54.6875 81.7862 52.5888 79.6875 50 79.6875C47.4112 79.6875 45.3125 81.7862 45.3125 84.375C45.3125 86.9638 47.4112 89.0625 50 89.0625Z" stroke="#333333" stroke-width="9.375" stroke-linecap="round" stroke-linejoin="round"/>
</svg>
