<svg width="28" height="28" viewBox="0 0 28 28" fill="none" xmlns="http://www.w3.org/2000/svg">
<rect width="28" height="28" rx="14" fill="#FF3131"/>
<rect width="28" height="28" rx="14" fill="url(#paint0_linear_1403_19605)" fill-opacity="0.3"/>
<path d="M9.21826 18.3538C11.9253 18.3538 14.0786 16.1513 14.0786 12.9705C14.0786 10.7803 12.6144 9.16835 10.0981 9.16835C7.38486 9.16835 5.25 11.377 5.25 14.5517C5.25 16.748 6.75117 18.3538 9.21826 18.3538ZM10.0488 11.0017C11.107 11.0017 11.7899 11.8139 11.7899 13.0997C11.7899 14.9946 10.6764 16.5204 9.27979 16.5204C8.22158 16.5204 7.54483 15.696 7.54483 14.4225C7.54483 12.5337 8.65225 11.0017 10.0488 11.0017Z" fill="white"/>
<path d="M16.432 9.32216L14.5493 18.2H16.8073L17.361 15.5976H18.8314C21.2616 15.5976 22.8427 14.2194 22.8427 11.9984C22.8427 10.3865 21.6738 9.32216 19.7419 9.32216H16.432ZM18.3207 11.0571H19.2743C20.0988 11.0571 20.5725 11.4386 20.5725 12.2015C20.5725 13.1981 19.8896 13.8934 18.8314 13.8934H17.7178L18.3207 11.0571Z" fill="white"/>
<defs>
<linearGradient id="paint0_linear_1403_19605" x1="0" y1="0" x2="14" y2="28" gradientUnits="userSpaceOnUse">
<stop stop-color="white"/>
<stop offset="1" stop-color="white" stop-opacity="0"/>
</linearGradient>
</defs>
</svg>
