<svg width="28" height="28" viewBox="0 0 28 28" fill="none" xmlns="http://www.w3.org/2000/svg">
<circle cx="14" cy="14" r="14" fill="white"/>
<path fill-rule="evenodd" clip-rule="evenodd" d="M14 28C6.48675 28.0075 0 21.5133 0 14C0 6.19601 6.0429 -0.00792386 14 7.59651e-06C21.9496 0.00793159 28 6.19601 28 14C28 21.5053 21.5053 27.9925 14 28ZM10.0288 20.5639H7.31537C6.74521 20.5639 6.46357 20.5639 6.29185 20.454C6.10636 20.3338 5.99302 20.1346 5.97928 19.9147C5.96897 19.7122 6.10981 19.4648 6.39145 18.9702L13.0912 7.16103C13.3762 6.65956 13.5205 6.40883 13.7025 6.3161C13.8983 6.21649 14.1319 6.21649 14.3276 6.3161C14.5097 6.40883 14.6539 6.65956 14.939 7.16103L16.3163 9.56531L16.3234 9.57758C16.6313 10.1156 16.7874 10.3884 16.8556 10.6747C16.9311 10.9873 16.9311 11.317 16.8556 11.6295C16.7869 11.9181 16.6323 12.1928 16.3198 12.739L12.8006 18.9599L12.7915 18.9758C12.4815 19.5182 12.3244 19.7931 12.1068 20.0005C11.8698 20.2273 11.5847 20.3921 11.2721 20.485C10.987 20.5639 10.6676 20.5639 10.0288 20.5639ZM16.881 20.5639H20.769C21.3426 20.5639 21.6311 20.5639 21.803 20.4507C21.9884 20.3304 22.1051 20.1277 22.1155 19.908C22.1254 19.712 21.9876 19.4742 21.7177 19.0084C21.7084 18.9925 21.6991 18.9764 21.6896 18.96L19.7421 15.6283L19.7199 15.5908C19.4462 15.128 19.3081 14.8943 19.1307 14.804C18.935 14.7044 18.7047 14.7044 18.509 14.804C18.3304 14.8967 18.1862 15.1406 17.9011 15.6318L15.9605 18.9634L15.9538 18.9749C15.6698 19.4652 15.5278 19.7103 15.538 19.9114C15.5518 20.1312 15.6651 20.3338 15.8506 20.454C16.0189 20.5639 16.3074 20.5639 16.881 20.5639Z" fill="#E84142"/>
</svg>
