<svg width="28" height="28" viewBox="0 0 28 28" fill="none" xmlns="http://www.w3.org/2000/svg">
<rect width="28" height="28" rx="14" fill="#8247E5"/>
<rect width="28" height="28" rx="14" fill="url(#paint0_linear_1403_19606)" fill-opacity="0.3"/>
<path d="M18.2775 10.919C17.9675 10.733 17.5646 10.733 17.2236 10.919L14.8059 12.3448L13.1631 13.2747L10.7454 14.7005C10.4354 14.8865 10.0325 14.8865 9.69149 14.7005L7.76972 13.5847C7.45976 13.3987 7.24278 13.0577 7.24278 12.6858V10.485C7.24278 10.1131 7.42876 9.77211 7.76972 9.58613L9.66049 8.50126C9.97046 8.31528 10.3734 8.31528 10.7144 8.50126L12.6051 9.58613C12.9151 9.77211 13.1321 10.1131 13.1321 10.485V11.9109L14.7749 10.95V9.52414C14.7749 9.15218 14.5889 8.81122 14.248 8.62524L10.7454 6.57949C10.4354 6.39351 10.0325 6.39351 9.69149 6.57949L6.12691 8.62524C5.78595 8.81122 5.59998 9.15218 5.59998 9.52414V13.6466C5.59998 14.0186 5.78595 14.3596 6.12691 14.5455L9.69149 16.5913C10.0015 16.7773 10.4044 16.7773 10.7454 16.5913L13.1631 15.1965L14.8059 14.2356L17.2236 12.8407C17.5336 12.6548 17.9365 12.6548 18.2775 12.8407L20.1683 13.9256C20.4782 14.1116 20.6952 14.4526 20.6952 14.8245V17.0252C20.6952 17.3972 20.5092 17.7382 20.1683 17.9241L18.2775 19.04C17.9675 19.226 17.5646 19.226 17.2236 19.04L15.3328 17.9551C15.0229 17.7692 14.8059 17.4282 14.8059 17.0562V15.6304L13.1631 16.5913V18.0171C13.1631 18.3891 13.3491 18.73 13.69 18.916L17.2546 20.9618C17.5646 21.1478 17.9675 21.1478 18.3085 20.9618L21.8731 18.916C22.183 18.73 22.4 18.3891 22.4 18.0171V13.8946C22.4 13.5227 22.214 13.1817 21.8731 12.9957L18.2775 10.919Z" fill="white"/>
<defs>
<linearGradient id="paint0_linear_1403_19606" x1="0" y1="0" x2="14" y2="28" gradientUnits="userSpaceOnUse">
<stop stop-color="white"/>
<stop offset="1" stop-color="white" stop-opacity="0"/>
</linearGradient>
</defs>
</svg>
