<svg width="28" height="28" viewBox="0 0 28 28" fill="none" xmlns="http://www.w3.org/2000/svg">
<rect width="28" height="28" rx="14" fill="url(#paint0_linear_1403_19603)"/>
<g clip-path="url(#clip0_1403_19603)">
<path d="M22.4578 18.4086V17.5344C22.4578 17.3721 22.2004 17.2171 21.7382 17.0774L21.7493 15.9893C21.7494 14.3131 21.2597 12.6775 20.3468 11.3039C19.4338 9.93027 18.1416 8.88518 16.6453 8.31015L16.6123 8.09199C16.5953 7.97536 16.5472 7.86621 16.4736 7.77718C16.4 7.68814 16.3039 7.62287 16.1965 7.58892C14.762 7.14576 13.2366 7.14576 11.8021 7.58892C11.6944 7.62252 11.598 7.6876 11.524 7.77659C11.4501 7.86557 11.4017 7.97481 11.3844 8.0916L11.3529 8.29493C9.84748 8.86454 8.54586 9.90918 7.62572 11.2862C6.70558 12.6633 6.21179 14.3056 6.21178 15.9889V17.0817C5.75594 17.221 5.50224 17.3744 5.50224 17.5356V18.4098C5.49498 18.461 5.50551 18.5133 5.53191 18.557C5.75868 18.3788 6.01909 18.2538 6.29561 18.1905C7.00028 18.0099 7.71655 17.8836 8.43869 17.8127C8.64116 17.7885 8.84621 17.81 9.04015 17.8758C9.23408 17.9416 9.41241 18.0502 9.56327 18.1944C10.1212 18.7316 10.85 19.0295 11.6062 19.0296H16.3538C17.1101 19.0296 17.839 18.7315 18.3967 18.194C18.5473 18.0492 18.7255 17.9398 18.9194 17.8732C19.1134 17.8067 19.3186 17.7844 19.5213 17.808C20.2433 17.8784 20.9595 18.0042 21.664 18.1843C21.9261 18.237 22.1735 18.3511 22.3881 18.518C22.4003 18.5308 22.4148 18.5418 22.4251 18.5539C22.4519 18.511 22.4635 18.4596 22.4578 18.4086Z" fill="#FFF100"/>
<path d="M9.57442 16.5689C9.56847 16.3683 9.56439 16.1673 9.56439 15.9647C9.56664 12.9256 10.2413 10.1999 11.3533 8.29651C9.84802 8.86596 8.5465 9.91034 7.6263 11.2871C6.70612 12.6638 6.21214 14.3058 6.21179 15.989V17.0817C7.3157 16.8046 8.44113 16.633 9.57442 16.5689Z" fill="url(#paint1_linear_1403_19603)"/>
<path d="M21.7486 15.989C21.7512 14.0917 21.1241 12.2531 19.9757 10.7904C20.4735 12.4643 20.7215 14.2093 20.7108 15.9632C20.7108 16.2594 20.7034 16.5521 20.6904 16.8425C21.0427 16.9001 21.3916 16.9783 21.7356 17.0767L21.7486 15.989Z" fill="url(#paint2_linear_1403_19603)"/>
<path d="M21.664 18.1874C20.9593 18.0068 20.243 17.8805 19.5209 17.8096C19.3183 17.7857 19.1132 17.8076 18.9192 17.8738C18.7253 17.9399 18.547 18.0488 18.3963 18.1933C17.8385 18.7306 17.1096 19.0286 16.3534 19.0285H11.6076C10.8517 19.0283 10.1232 18.7305 9.56542 18.1937C9.41497 18.0486 9.23681 17.9391 9.04288 17.8724C8.84891 17.8057 8.64365 17.7834 8.44084 17.8069C7.7187 17.8777 7.00244 18.0038 6.29775 18.1843C6.02148 18.2485 5.76123 18.3733 5.53406 18.5508C5.89421 19.1311 9.53982 19.7404 13.9818 19.7404C18.4237 19.7404 22.0675 19.1292 22.4288 18.5512C22.4162 18.5394 22.4021 18.5281 22.3917 18.5156C22.1745 18.3522 21.9262 18.2402 21.664 18.1874Z" fill="url(#paint3_radial_1403_19603)"/>
<path d="M13.9793 9.8233L12.1619 13.0814L13.9793 14.269V9.82447V9.8233Z" fill="#0A0A0A"/>
<path d="M13.98 9.82445V14.2682L15.7974 13.0821L13.98 9.82445Z" fill="#4B4D4D"/>
<path d="M13.98 14.9137V16.4631C14.0141 16.4116 15.7974 13.7257 15.7974 13.7245L13.98 14.9137Z" fill="#4B4D4D"/>
<path d="M13.98 14.9141L12.1626 13.7269L13.98 16.4643V14.9133V14.9141Z" fill="#0A0A0A"/>
</g>
<defs>
<linearGradient id="paint0_linear_1403_19603" x1="14" y1="0" x2="14" y2="28" gradientUnits="userSpaceOnUse">
<stop stop-color="#F7F1FD"/>
<stop offset="1" stop-color="#FBFCDC"/>
</linearGradient>
<linearGradient id="paint1_linear_1403_19603" x1="8.78253" y1="17.0817" x2="8.78253" y2="8.29651" gradientUnits="userSpaceOnUse">
<stop stop-color="#EDCF00"/>
<stop offset="0.33" stop-color="#F0D500"/>
<stop offset="0.77" stop-color="#F9E500"/>
<stop offset="1" stop-color="#FFF100"/>
</linearGradient>
<linearGradient id="paint2_linear_1403_19603" x1="20.8622" y1="17.1458" x2="20.8622" y2="10.7904" gradientUnits="userSpaceOnUse">
<stop stop-color="#EDCF00"/>
<stop offset="0.59" stop-color="#F7E100"/>
<stop offset="1" stop-color="#FFF100"/>
</linearGradient>
<radialGradient id="paint3_radial_1403_19603" cx="0" cy="0" r="1" gradientUnits="userSpaceOnUse" gradientTransform="translate(6.45005 23.0835) scale(6.30353 6.64935)">
<stop stop-color="#FFF100"/>
<stop offset="0.23" stop-color="#F9E500"/>
<stop offset="0.67" stop-color="#F0D500"/>
<stop offset="1" stop-color="#EDCF00"/>
</radialGradient>
<clipPath id="clip0_1403_19603">
<rect width="17" height="13" fill="white" transform="translate(5.5 7)"/>
</clipPath>
</defs>
</svg>
